<?xml version="1.0" encoding="utf-8"?>
<!-- Generator: Adobe Illustrator 23.0.0, SVG Export Plug-In . SVG Version: 6.00 Build 0)  -->
<svg version="1.1" id="Layer_1" xmlns="http://www.w3.org/2000/svg" xmlns:xlink="http://www.w3.org/1999/xlink" x="0px" y="0px"
	 viewBox="0 0 1110.519 420.481" enable-background="new 0 0 1110.519 420.481" xml:space="preserve">
<g>
	<path fill="#FFFFFF" d="M572.965,90.116H416.059c-40.642,0-73.588,32.947-73.588,73.588v76.278
		c0,40.642,32.947,73.588,73.588,73.588h156.905c40.642,0,73.588-32.947,73.588-73.588v-76.278
		C646.553,123.063,613.606,90.116,572.965,90.116z M581.985,225.251c0,17.815-14.442,32.257-32.257,32.257H439.296
		c-17.815,0-32.257-14.442-32.257-32.257v-46.815c0-17.815,14.442-32.257,32.257-32.257h110.432
		c17.815,0,32.257,14.442,32.257,32.257V225.251z"/>
	<path fill="#FFFFFF" d="M993.391,89.632H783.806v223.455h209.585c40.642,0,73.588-32.947,73.588-73.588V163.22
		C1066.98,122.578,1034.033,89.632,993.391,89.632z M1003.246,224.766c0,17.815-14.442,32.257-32.257,32.257H847.54v-111.33h123.449
		c17.815,0,32.257,14.442,32.257,32.257V224.766z"/>
	<g>
		<path fill="#FFFFFF" d="M1083.174,105.619c-2.175-1.292-3.882-3.051-5.119-5.279c-1.239-2.23-1.857-4.721-1.857-7.482
			c0-2.758,0.61-5.242,1.83-7.453c1.22-2.21,2.917-3.953,5.093-5.225c2.175-1.272,4.606-1.91,7.295-1.91
			c2.687,0,5.11,0.645,7.268,1.936c2.157,1.292,3.837,3.051,5.04,5.279c1.202,2.227,1.803,4.721,1.803,7.479
			c0,2.724-0.602,5.199-1.803,7.428c-1.203,2.227-2.874,3.977-5.013,5.252c-2.141,1.272-4.554,1.91-7.242,1.91
			S1085.349,106.911,1083.174,105.619z M1096.251,103.363c1.768-1.059,3.156-2.511,4.164-4.348c1.008-1.84,1.512-3.873,1.512-6.103
			c0-2.191-0.513-4.217-1.538-6.074c-1.026-1.857-2.414-3.323-4.164-4.404c-1.75-1.079-3.687-1.617-5.809-1.617
			c-2.193,0-4.164,0.538-5.915,1.617c-1.751,1.081-3.13,2.54-4.138,4.377c-1.008,1.84-1.512,3.856-1.512,6.047
			c0,2.23,0.504,4.263,1.512,6.103c1.008,1.84,2.396,3.296,4.164,4.375c1.768,1.081,3.731,1.619,5.889,1.619
			C1092.537,104.955,1094.482,104.424,1096.251,103.363z"/>
		<path fill="#FFFFFF" d="M1085.003,85.621h5.625c1.779,0,3.13,0.366,4.052,1.098s1.382,1.812,1.382,3.241
			c0,1.4-0.159,2.448-0.476,3.147c-0.318,0.699-0.906,1.272-1.764,1.716l2.432,5.434h-3.48l-2.05-4.909h-2.383v4.909h-3.337V85.621z
			 M1090.627,92.773c0.763,0,1.319-0.183,1.669-0.549c0.349-0.366,0.524-0.945,0.524-1.74c0-1.494-0.843-2.241-2.527-2.241h-2.002
			v4.53H1090.627z"/>
	</g>
	<g>
		<path fill="#FFFFFF" d="M362.598,403.134c0-10.971-20.145-6.694-20.145-21.572c0-9.174,7.687-11.901,14.318-11.901
			c4.03,0,11.281,1.053,11.281,4.464c0,1.24-0.867,3.534-2.727,3.534c-1.674,0-3.284-2.357-8.554-2.357
			c-4.524,0-7.748,1.737-7.748,5.641c0,9.174,20.145,5.021,20.145,21.509c0,8.864-5.951,13.204-14.134,13.204
			c-8.058,0-13.698-4.217-13.698-7.314c0-1.49,1.303-3.534,2.853-3.534c2.23,0,3.717,4.897,10.598,4.897
			C359.251,409.704,362.598,407.598,362.598,403.134z"/>
		<path fill="#FFFFFF" d="M391.134,401.707v-18.038c0-10.041,6.014-13.822,13.885-13.822c7.811,0,13.948,3.78,13.948,13.822v18.038
			c0,10.041-6.137,13.824-13.948,13.824C397.147,415.532,391.134,411.748,391.134,401.707z M412.395,383.669
			c0-5.454-2.79-7.994-7.377-7.994c-4.647,0-7.314,2.54-7.314,7.994v18.038c0,5.454,2.667,7.997,7.314,7.997
			c4.587,0,7.377-2.543,7.377-7.997V383.669z"/>
		<path fill="#FFFFFF" d="M517.568,369.661c1.49,0,2.17,1.487,2.17,2.914c0,1.61-0.743,3.1-2.17,3.1h-9.544v37.127
			c0,1.427-1.673,2.17-3.284,2.17c-1.673,0-3.287-0.743-3.287-2.17v-37.127h-9.608c-1.363,0-2.17-1.427-2.17-3.04
			c0-1.424,0.683-2.974,2.17-2.974H517.568z"/>
		<path fill="#FFFFFF" d="M580.133,413.298c-0.494,1.487-2.417,2.233-4.214,2.233s-3.72-0.746-4.09-2.233l-4.711-18.719
			l-4.711,18.719c-0.373,1.487-2.294,2.233-4.154,2.233c-1.86,0-3.72-0.746-4.154-2.233l-12.335-40.167
			c-0.063-0.184-0.063-0.37-0.063-0.62c0-1.547,2.233-2.664,4.091-2.664c1.056,0,2.047,0.433,2.294,1.363l10.167,35.33l5.577-22.189
			c0.31-1.363,1.674-1.92,3.287-1.92c1.487,0,2.85,0.557,3.224,1.92l5.641,22.189l10.101-35.33c0.25-0.93,1.24-1.363,2.294-1.363
			c1.86,0,4.093,1.117,4.093,2.664c0,0.25,0,0.436-0.063,0.62L580.133,413.298z"/>
		<path fill="#FFFFFF" d="M614.435,412.431c0-0.187,0-0.373,0.063-0.557l12.335-40.167c0.497-1.487,2.294-2.233,4.154-2.233
			c1.86,0,3.717,0.746,4.214,2.233l12.274,40.167c0.06,0.184,0.123,0.37,0.123,0.557c0,1.55-2.294,2.727-4.154,2.727
			c-1.054,0-1.92-0.373-2.23-1.363l-2.543-8.801h-15.308l-2.543,8.801c-0.307,0.99-1.177,1.363-2.294,1.363
			C616.729,415.158,614.435,414.042,614.435,412.431z M637.184,399.724l-6.197-21.259l-6.2,21.259H637.184z"/>
		<path fill="#FFFFFF" d="M669.563,372.446c0-1.117,0.867-2.107,2.17-2.107h11.781c7.808,0,14.255,3.037,14.255,12.645
			c0,7.377-3.783,11.034-8.738,12.274l8.675,16.302c0.189,0.31,0.247,0.68,0.247,0.93c0,1.674-2.107,3.347-3.967,3.347
			c-1.114,0-1.981-0.743-2.601-1.923l-9.054-17.725h-6.258v17.292c0,1.427-1.613,2.17-3.284,2.17c-1.613,0-3.226-0.743-3.226-2.17
			V372.446z M676.074,376.167v14.752h7.44c4.644,0,7.682-1.984,7.682-7.377c0-5.391-3.037-7.374-7.682-7.374H676.074z"/>
		<path fill="#FFFFFF" d="M726.392,389.931h9.547c1.366,0,2.17,1.24,2.17,2.664c0,1.18-0.683,2.543-2.17,2.543h-9.547v14.255h18.411
			c1.366,0,2.17,1.363,2.17,2.977c0,1.363-0.683,2.85-2.17,2.85h-22.068c-1.424,0-2.911-0.743-2.911-2.17v-40.971
			c0-1.427,1.487-2.17,2.911-2.17h22.068c1.487,0,2.17,1.487,2.17,2.85c0,1.613-0.804,2.977-2.17,2.977h-18.411V389.931z"/>
		<path fill="#FFFFFF" d="M440.931,371.831c0-1.427,1.487-2.17,2.914-2.17h21.758c1.487,0,2.107,1.487,2.107,2.85
			c0,1.613-0.743,2.977-2.107,2.977h-18.101v14.195h9.608c1.363,0,2.107,1.24,2.107,2.664c0,1.18-0.62,2.543-2.107,2.543h-9.608
			v17.912c0,1.487-1.61,2.17-3.284,2.17c-1.613,0-3.287-0.683-3.287-2.17V371.831z"/>
	</g>
	<path fill="#FFFFFF" d="M334.424,89.632l-102.853,186.44c-3.44,6.17-7.509,11.909-12.212,17.218
		c-4.703,5.31-11.252,9.936-19.645,13.881c-8.396,3.944-18.458,5.916-30.188,5.916c-11.226,0-21.189-2.074-29.885-6.22
		c-8.699-4.146-15.677-9.026-20.935-14.639c-5.26-5.613-8.851-10.593-10.771-14.943L5.993,89.632h70.844L158.3,236.326
		c2.326,4.247,4.07,7.08,5.234,8.495c1.162,1.418,3.058,2.124,5.689,2.124c2.83,0,4.878-0.758,6.144-2.275
		c1.264-1.517,3.008-4.298,5.234-8.344l82.07-146.694H334.424z"/>
	<g>
		<rect x="683.371" y="90.116" fill="#FFFFFF" width="63.617" height="223.455"/>
		<path fill="#FFFFFF" d="M666.226,4.645l30.389,55.94c0.572,1.297,1.643,2.781,3.211,4.454c1.567,1.673,3.647,3.128,6.241,4.364
			c2.592,1.236,5.562,1.854,8.909,1.854c3.497,0,6.496-0.588,8.999-1.764c2.502-1.176,4.454-2.555,5.856-4.138
			c1.402-1.583,2.615-3.294,3.64-5.133l30.661-55.578H666.226z"/>
	</g>
</g>
</svg>
