<?xml version="1.0" standalone="no"?>
<!DOCTYPE svg PUBLIC "-//W3C//DTD SVG 20010904//EN"
 "http://www.w3.org/TR/2001/REC-SVG-20010904/DTD/svg10.dtd">
<svg version="1.0" xmlns="http://www.w3.org/2000/svg"
 width="1024.000000pt" height="1024.000000pt" viewBox="0 0 1024.000000 1024.000000"
 preserveAspectRatio="xMidYMid meet">

<g transform="translate(0.000000,1024.000000) scale(0.100000,-0.100000)"
fill="#000000" stroke="none">
<path d="M1006 7931 c-3 -5 43 -98 103 -207 161 -296 366 -674 536 -989 83
-154 224 -413 312 -575 88 -162 263 -484 388 -715 331 -610 579 -1068 794
-1463 104 -191 253 -466 331 -612 196 -365 327 -534 540 -694 359 -270 790
-393 1248 -356 280 22 455 68 669 177 212 107 357 223 495 397 151 189 152
191 615 1031 94 171 231 418 303 550 73 132 220 400 328 595 107 195 211 384
232 420 21 36 93 166 160 290 68 124 194 353 280 510 181 328 337 611 666
1209 129 233 231 427 228 432 -3 5 -395 9 -894 9 l-890 0 -23 -37 c-13 -21
-115 -202 -227 -403 -224 -401 -502 -899 -832 -1490 -539 -964 -653 -1167
-835 -1495 -291 -522 -295 -527 -418 -533 -48 -3 -83 1 -107 11 -63 26 -67 33
-528 867 -399 720 -748 1350 -885 1595 -153 274 -384 692 -618 1115 -98 179
-185 335 -193 348 l-14 22 -880 0 c-489 0 -881 -4 -884 -9z"/>
<path d="M3900 7928 c0 -6 77 -153 172 -327 456 -841 543 -1001 579 -1066 21
-38 57 -90 80 -113 219 -228 626 -210 796 35 22 32 123 209 225 393 444 802
588 1067 588 1078 0 9 -284 12 -1220 12 -924 0 -1220 -3 -1220 -12z"/>
</g>
</svg>
